<svg xmlns="http://www.w3.org/2000/svg" version="1.1" xmlns:xlink="http://www.w3.org/1999/xlink" xmlns:svgjs="http://svgjs.dev/svgjs" viewBox="0 0 11.20978260091257 5.317332267895662"><g transform="matrix(0.7942728092681273,0,0,0.7942728092681273,4.915721409038941,1.9127026025494647)"><rect width="12.587042173313256" height="12.587042173313256" x="-5.42584705403757" y="-5.354343108141003" fill="#ececd9"></rect><g clip-path="url(#SvgjsClipPath26573)"><g clip-path="url(#SvgjsClipPath2656888be98cf-54bd-46a7-b899-f04077c49209)"><path d=" M -2.483526851685063 0.23134681394284096 C -2.3718677190953006 0.31085140184353666 -2.276901088438559 0.411501265078573 -2.2040131811407555 0.5275878463776393 L -2.2040131811407555 0.5275878463776393 C -2.2744533028131393 0.4096291383544912 -2.369856639384507 0.3085164347482925 -2.4835268516850633 0.23134681394284096 Z" fill="#173054" transform="matrix(1,0,0,1,0,0)" fill-rule="nonzero"></path></g><g clip-path="url(#SvgjsClipPath2656888be98cf-54bd-46a7-b899-f04077c49209)"><path d=" M -1.118306264972345 1.9472270238157972 C -0.7120117641518178 1.9165601936832322 -0.40127095151619097 1.5750705540430223 -0.4000136661453375 1.1676280970143225 C -0.4000136661453375 1.1622345249886314 -0.4000136661453375 1.1568363975811584 -0.4000136661453375 1.151433714791911 C -0.4011834445890483 0.8753636713594977 -0.4679703627267595 0.603527143074619 -0.5948655663370319 0.35834630254442845 C -0.6562812234741817 0.2397651594694279 -0.7136790338827326 0.11910676230345318 -0.76353313206616 -0.004763179016335384 C -0.8306749040988293 -0.1715721489798524 -0.9568407578349571 -0.409349411669941 -1.1618056055748256 -0.5292288385518007 C -1.497213810540793 -0.7254063548410262 -1.712373602700846 -0.7317337801313026 -1.7629930050230542 -0.8962741699691457 C -1.7629930050230542 -0.8962741699691457 -1.7819889470392174 -0.6980057334436098 -1.5731429140241047 -0.5851370391187956 C -1.5086782679336919 -0.5501915249104565 -1.456863041501789 -0.4958228349389975 -1.4250565631700436 -0.42975296665564566 C -1.43690055579403 -0.4351283171542232 -1.4487992129993583 -0.44036700619944846 -1.4607525347860277 -0.4454690337913214 C -1.5206375836456165 -0.4937378591158442 -1.6153303046743894 -0.5427446562884786 -1.7634439878191217 -0.5851370391187956 C -2.27559645040742 -0.7317337801313001 -2.3281291130765793 -0.7570571474377397 -2.452791690825818 -0.8962741699691457 C -2.6984543193744157 -1.1706220375766854 -3.016000872387055 -0.9405798131464148 -3.016000872387055 -0.9405798131464148 C -3.016000872387055 -0.9405798131464148 -2.7434569359637866 -1.091864042008951 -2.5751036915773726 -0.8671789465501445 C -2.5067729649005264 -0.7758890957098807 -2.477459083156159 -0.6725730369744878 -2.431117184323922 -0.5827317975397692 C -2.5321509967883062 -0.6362894211090827 -2.6771078003605684 -0.6694024912566827 -2.8767838498556486 -0.6241538840512739 C -3.351409077353022 -0.5165739879712478 -3.566568869513076 -0.5851370391187956 -3.566568869513076 -0.5851370391187956 C -3.566568869513076 -0.5851370391187956 -3.4589889734330486 -0.4786094362295914 -3.1552178949184606 -0.46595458564903847 C -3.0682048019886343 -0.46244347397227437 -2.9823007956834564 -0.44514089502953125 -2.900713270337879 -0.41469287449606895 C -2.880214052334826 -0.4070125008175909 -2.8609311212666197 -0.3988811443430472 -2.843028470877286 -0.39057212797914254 C -2.8685053646196956 -0.3977975814674961 -2.894618923694281 -0.4025525740855277 -2.9210074961609034 -0.40477125298259187 C -3.0098374408408035 -0.4124926250970762 -3.1248380538379363 -0.3956422678985634 -3.2691252162887645 -0.3267238969722962 C -3.6931310414639316 -0.12421895539279681 -3.894324033091237 -0.11156410481224388 -3.894324033091237 -0.11156410481224388 C -3.894324033091237 -0.11156410481224388 -3.6488253982866636 -0.060999367071376986 -3.4020148135298953 -0.1368738059733472 C -3.3655170644994623 -0.148154241323587 -3.327971805331533 -0.15571365874873966 -3.289952421779866 -0.15943661192204106 C -3.253900482484717 -0.16294171294210202 -3.2175900623526186 -0.1628684695328596 -3.1815525569797187 -0.15921795359667645 C -3.229441719230681 -0.15869749313653658 -3.2768251323511395 -0.1493579388883115 -3.321329891469874 -0.13166700460057412 C -3.390945235808246 -0.10462170298187456 -3.4675576465583253 -0.054753938653112844 -3.547832584258285 0.030413479076907945 C -3.8983282136745006 0.40221462907096317 -4.048491818619537 0.17664123416535937 -4.048491818619537 0.17664123416535937 C -4.048491818619537 0.17664123416535937 -3.9264121423386835 0.4311048603099361 -3.6842753792866114 0.33098667958302075 C -3.6624521740035485 0.32180568260575937 -3.6414257383299837 0.31083536834129055 -3.6214111107439124 0.29818793077813144 C -3.587687365790992 0.2689888119975514 -3.5519284037683314 0.24222667694610722 -3.5144051927679714 0.21810431911287043 C -3.203814707731034 -0.011336594922643828 -2.795251626784835 0.010542903759281241 -2.483458520958386 0.23125115092549486 C -2.3697883086578297 0.30842077173094884 -2.274384972086461 0.4095334753371478 -2.203944850414078 0.5274921833602959 C -2.1590271374001455 0.6026789630527867 -2.12494047207767 0.6838262977751279 -2.102692379624327 0.7685356547855382 C -2.0470301696733695 0.9807162272624801 -2.0777653305326145 1.2051143336692434 -2.011429861074732 1.4153406473632293 C -1.904765596732175 1.7533864183789243 -1.5294795796776 1.949837257574857 -1.1901765232910524 1.949837257574857 C -1.1660238891016763 1.9499010329197537 -1.1420671363287744 1.949030955000067 -1.118306264972345 1.9472270238157972 Z" fill="#173054" transform="matrix(1,0,0,1,0,0)" fill-rule="nonzero"></path></g><g clip-path="url(#SvgjsClipPath2656888be98cf-54bd-46a7-b899-f04077c49209)"><path d=" M -1.28541589013324 2.2539089912868193 C -1.711038042091361 2.253863859373593 -2.0831892253710818 1.9670251498841762 -2.1916179873215746 1.5554459693414326 C -2.2472801972725334 1.3432653968644908 -2.2165450364132884 1.118867290457728 -2.282880505871171 0.908640976763744 C -2.3895447702137282 0.5705815396027154 -2.764830787268304 0.3741443665521167 -3.104133843654851 0.3741443665521167 C -3.131028817674858 0.3741443665521167 -3.157650468788157 0.3752558797060581 -3.1839987969947487 0.3774789060139465 C -3.58671276773741 0.4112616172829793 -3.8929574185577 0.7517262960230342 -3.894351365381907 1.1558615458805743 C -3.894351365381907 1.1614373331774033 -3.8940780424751997 1.1670404527649048 -3.894351365381907 1.1726435723524058 C -3.934707492557252 2.068732721992568 -3.1037921900214664 2.913983810985159 -2.1383336866589695 2.9091869939724426 C -1.4747149378348103 2.905959907896778 -0.8702097849329959 2.527061423575231 -0.5780425414291908 1.9312103014827495 C -0.7557696944914323 2.136415175515075 -1.013946001580532 2.254193370281305 -1.28541589013324 2.2539089912868193 Z M -3.3761857988460466 0.8793270950193757 C -3.420186571662362 0.9376713864836805 -3.455123967131084 1.0023260707264008 -3.4798161789241524 1.0711041125106129 C -3.5467802910674617 1.2584942973491957 -3.532977484278739 1.4597556197031785 -3.438940738226063 1.67043291619323 C -3.4187492778871182 1.7158439841785467 -3.4370592172246646 1.7691396251949345 -3.4808958044056473 1.7925535909100887 C -3.5042249392036453 1.804992319987761 -3.5316807717403433 1.8071522849273265 -3.5566679969048076 1.7985146295700383 C -3.5816552220692692 1.7898769742127478 -3.6019157806447843 1.7712222709175611 -3.612582780857265 1.7470316607979752 C -3.755626324082575 1.4249342813886572 -3.7169511327834797 1.1643482221338375 -3.654947831396911 0.9971019355195887 C -3.6239515144112144 0.913722073617713 -3.5809510000563507 0.835312891607255 -3.5273060339645603 0.7643538143129145 C -3.510225574558484 0.7419202635053781 -3.484045724224484 0.7282537803006024 -3.4558749338900423 0.7270651393582195 C -3.4277041435556024 0.7258764984158366 -3.400466105581447 0.7372890622827162 -3.381556593962847 0.7582040489119966 L -3.3814745970908344 0.7582860457840088 C -3.3508665022813915 0.7921250177431343 -3.348645856769805 0.8429473880173679 -3.3761857988460466 0.879327095019373 Z" fill="#3a868f" transform="matrix(1,0,0,1,0,0)" fill-rule="nonzero"></path></g></g><g><path d=" M 0.104736328125 0.02197265625 Q 0.1962890625 0.02197265625 0.2867431640625 0.021240234375 Q 0.377197265625 0.0205078125 0.45263671875 0.0194091796875 Q 0.528076171875 0.018310546875 0.58154296875 0.01611328125 Q 0.635009765625 0.013916015625 0.654052734375 0.01025390625 L 0.6181640625 0.107666015625 Q 0.593994140625 0.10107421875 0.561767578125 0.095947265625 Q 0.533935546875 0.091552734375 0.4940185546875 0.0875244140625 Q 0.4541015625 0.08349609375 0.402099609375 0.08349609375 Q 0.384521484375 0.08349609375 0.3599853515625 0.0845947265625 Q 0.33544921875 0.085693359375 0.312744140625 0.087158203125 Q 0.286376953125 0.088623046875 0.25927734375 0.090087890625 L 0.25927734375 0.489990234375 Q 0.334716796875 0.4892578125 0.3955078125 0.485595703125 Q 0.456298828125 0.48193359375 0.498779296875 0.478271484375 Q 0.548583984375 0.473876953125 0.586669921875 0.468017578125 L 0.56396484375 0.57421875 Q 0.513427734375 0.567626953125 0.460693359375 0.561767578125 Q 0.415283203125 0.556640625 0.36181640625 0.5526123046875 Q 0.308349609375 0.548583984375 0.25927734375 0.548583984375 L 0.25927734375 1.0078125 Q 0.345703125 1.0078125 0.418212890625 1.00048828125 Q 0.49072265625 0.9931640625 0.544921875 0.983642578125 Q 0.60791015625 0.973388671875 0.659912109375 0.95947265625 L 0.638671875 1.078125 Q 0.6298828125 1.077392578125 0.6123046875 1.07666015625 Q 0.5947265625 1.075927734375 0.5731201171875 1.0751953125 Q 0.551513671875 1.074462890625 0.5277099609375 1.0740966796875 Q 0.50390625 1.07373046875 0.482666015625 1.0733642578125 Q 0.46142578125 1.072998046875 0.4449462890625 1.0726318359375 Q 0.428466796875 1.072265625 0.421142578125 1.072265625 L 0.104736328125 1.072265625 L 0.104736328125 1.0693359375 Q 0.109130859375 1.053955078125 0.1131591796875 1.03125 Q 0.1171875 1.008544921875 0.1201171875 0.974853515625 Q 0.123046875 0.941162109375 0.12451171875 0.8946533203125 Q 0.1259765625 0.84814453125 0.1259765625 0.785888671875 L 0.1259765625 0.30908203125 Q 0.1259765625 0.246826171875 0.12451171875 0.2003173828125 Q 0.123046875 0.15380859375 0.1201171875 0.1197509765625 Q 0.1171875 0.085693359375 0.1131591796875 0.06298828125 Q 0.109130859375 0.040283203125 0.104736328125 0.02490234375 L 0.104736328125 0.02197265625 L 0.104736328125 0.02197265625 M 1.68896484375 0.18310546875 L 1.682373046875 0.18603515625 Q 1.625244140625 0.13330078125 1.5450439453125 0.101806640625 Q 1.46484375 0.0703125 1.368896484375 0.0703125 Q 1.276611328125 0.0703125 1.19970703125 0.0992431640625 Q 1.122802734375 0.128173828125 1.0675048828125 0.18310546875 Q 1.01220703125 0.238037109375 0.9814453125000001 0.31787109375 Q 0.9506835937500001 0.397705078125 0.9506835937500001 0.49951171875 Q 0.9506835937500001 0.611572265625 0.9799804687500001 0.7086181640625 Q 1.00927734375 0.8056640625 1.067138671875 0.876708984375 Q 1.125 0.94775390625 1.2117919921875 0.9884033203125 Q 1.298583984375 1.029052734375 1.414306640625 1.029052734375 Q 1.4560546875 1.029052734375 1.497802734375 1.020263671875 Q 1.53955078125 1.011474609375 1.5780029296875 0.9942626953125 Q 1.616455078125 0.97705078125 1.6505126953125 0.9525146484375 Q 1.6845703125 0.927978515625 1.71240234375 0.896484375 L 1.720458984375 0.901611328125 L 1.661865234375 1.051025390625 Q 1.60693359375 1.072265625 1.5406494140625 1.0836181640625 Q 1.474365234375 1.094970703125 1.406982421875 1.094970703125 Q 1.271484375 1.094970703125 1.1590576171875 1.0557861328125 Q 1.046630859375 1.0166015625 0.9656982421875001 0.94482421875 Q 0.8847656250000001 0.873046875 0.8397216796875001 0.7723388671875 Q 0.7946777343750001 0.671630859375 0.7946777343750001 0.548583984375 Q 0.7946777343750001 0.47900390625 0.8126220703125001 0.41162109375 Q 0.8305664062500001 0.34423828125 0.8649902343750001 0.283447265625 Q 0.8994140625000001 0.22265625 0.9499511718750001 0.1717529296875 Q 1.00048828125 0.120849609375 1.0653076171875 0.08349609375 Q 1.130126953125 0.046142578125 1.2081298828125 0.0252685546875 Q 1.2861328125 0.00439453125 1.376953125 0.00439453125 Q 1.518310546875 0.00439453125 1.63916015625 0.047607421875 L 1.68896484375 0.18310546875 M 2.332763671875 0.00439453125 Q 2.455078125 0.00439453125 2.5587158203125 0.0443115234375 Q 2.662353515625 0.084228515625 2.73779296875 0.1563720703125 Q 2.813232421875 0.228515625 2.855712890625 0.32958984375 Q 2.898193359375 0.4306640625 2.898193359375 0.552978515625 Q 2.898193359375 0.62255859375 2.882080078125 0.68994140625 Q 2.865966796875 0.75732421875 2.8348388671875 0.8173828125 Q 2.8037109375 0.87744140625 2.75830078125 0.9283447265625 Q 2.712890625 0.979248046875 2.6546630859375 1.0162353515625 Q 2.596435546875 1.05322265625 2.526123046875 1.0740966796875 Q 2.455810546875 1.094970703125 2.37451171875 1.094970703125 Q 2.252197265625 1.094970703125 2.1485595703125 1.0557861328125 Q 2.044921875 1.0166015625 1.969482421875 0.94482421875 Q 1.89404296875 0.873046875 1.8515625 0.7723388671875 Q 1.80908203125 0.671630859375 1.80908203125 0.548583984375 Q 1.80908203125 0.47900390625 1.8251953125 0.41162109375 Q 1.84130859375 0.34423828125 1.8724365234375 0.283447265625 Q 1.903564453125 0.22265625 1.9486083984375 0.1717529296875 Q 1.99365234375 0.120849609375 2.0518798828125 0.08349609375 Q 2.110107421875 0.046142578125 2.1807861328125 0.0252685546875 Q 2.25146484375 0.00439453125 2.332763671875 0.00439453125 M 2.37451171875 1.029052734375 Q 2.455810546875 1.029052734375 2.523193359375 0.999755859375 Q 2.590576171875 0.970458984375 2.6392822265625 0.914794921875 Q 2.68798828125 0.859130859375 2.715087890625 0.7789306640625 Q 2.7421875 0.69873046875 2.7421875 0.596923828125 Q 2.7421875 0.484130859375 2.7161865234375 0.3878173828125 Q 2.690185546875 0.29150390625 2.638916015625 0.2208251953125 Q 2.587646484375 0.150146484375 2.5111083984375 0.1102294921875 Q 2.4345703125 0.0703125 2.332763671875 0.0703125 Q 2.25146484375 0.0703125 2.18408203125 0.0992431640625 Q 2.11669921875 0.128173828125 2.0679931640625 0.18310546875 Q 2.019287109375 0.238037109375 1.9921875 0.31787109375 Q 1.965087890625 0.397705078125 1.965087890625 0.49951171875 Q 1.965087890625 0.611572265625 1.99072265625 0.7086181640625 Q 2.016357421875 0.8056640625 2.067626953125 0.876708984375 Q 2.118896484375 0.94775390625 2.19580078125 0.9884033203125 Q 2.272705078125 1.029052734375 2.37451171875 1.029052734375 M 3.986572265625 0.94921875 Q 3.986572265625 0.957275390625 3.9847412109375 0.966064453125 Q 3.98291015625 0.974853515625 3.976318359375 0.980712890625 Q 3.943359375 1.005615234375 3.9049072265625 1.0264892578125 Q 3.866455078125 1.04736328125 3.82177734375 1.062744140625 Q 3.777099609375 1.078125 3.7254638671875 1.0865478515625 Q 3.673828125 1.094970703125 3.614501953125 1.094970703125 Q 3.481201171875 1.094970703125 3.371337890625 1.0557861328125 Q 3.261474609375 1.0166015625 3.1827392578125 0.94482421875 Q 3.10400390625 0.873046875 3.060791015625 0.7723388671875 Q 3.017578125 0.671630859375 3.017578125 0.548583984375 Q 3.017578125 0.47900390625 3.0355224609375 0.41162109375 Q 3.053466796875 0.34423828125 3.087890625 0.283447265625 Q 3.122314453125 0.22265625 3.1728515625 0.1717529296875 Q 3.223388671875 0.120849609375 3.2882080078125 0.08349609375 Q 3.35302734375 0.046142578125 3.4310302734375 0.0252685546875 Q 3.509033203125 0.00439453125 3.599853515625 0.00439453125 Q 3.635009765625 0.00439453125 3.671630859375 0.0076904296875 Q 3.708251953125 0.010986328125 3.744140625 0.0172119140625 Q 3.780029296875 0.0234375 3.8133544921875 0.0322265625 Q 3.8466796875 0.041015625 3.876708984375 0.052001953125 L 3.926513671875 0.1875 L 3.920654296875 0.1904296875 Q 3.89208984375 0.164794921875 3.854736328125 0.142822265625 Q 3.8173828125 0.120849609375 3.77490234375 0.104736328125 Q 3.732421875 0.088623046875 3.6859130859375 0.0794677734375 Q 3.639404296875 0.0703125 3.591796875 0.0703125 Q 3.49951171875 0.0703125 3.422607421875 0.0992431640625 Q 3.345703125 0.128173828125 3.2904052734375 0.18310546875 Q 3.235107421875 0.238037109375 3.204345703125 0.31787109375 Q 3.173583984375 0.397705078125 3.173583984375 0.49951171875 Q 3.173583984375 0.611572265625 3.202880859375 0.70751953125 Q 3.232177734375 0.803466796875 3.2900390625 0.873779296875 Q 3.347900390625 0.944091796875 3.4346923828125 0.9840087890625 Q 3.521484375 1.02392578125 3.63720703125 1.02392578125 Q 3.6884765625 1.02392578125 3.728759765625 1.015869140625 Q 3.76904296875 1.0078125 3.796875 0.9957275390625 Q 3.82470703125 0.983642578125 3.8389892578125 0.9693603515625 Q 3.853271484375 0.955078125 3.853271484375 0.943359375 L 3.853271484375 0.914794921875 Q 3.853271484375 0.863525390625 3.851806640625 0.826171875 Q 3.850341796875 0.788818359375 3.847412109375 0.7613525390625 Q 3.844482421875 0.73388671875 3.8408203125 0.714111328125 Q 3.837158203125 0.6943359375 3.83203125 0.677490234375 L 3.83203125 0.674560546875 L 4.0078125 0.674560546875 L 4.0078125 0.677490234375 Q 4.00341796875 0.69287109375 3.9993896484375 0.7137451171875 Q 3.995361328125 0.734619140625 3.992431640625 0.76318359375 Q 3.989501953125 0.791748046875 3.988037109375 0.8302001953125 Q 3.986572265625 0.86865234375 3.986572265625 0.919189453125 L 3.986572265625 0.94921875 M 4.916015625 1.072265625 L 4.916015625 1.0693359375 Q 4.91748046875 1.065673828125 4.918212890625 1.058349609375 Q 4.9189453125 1.051025390625 4.9189453125 1.045166015625 Q 4.9189453125 1.0224609375 4.9127197265625 0.9949951171875 Q 4.906494140625 0.967529296875 4.888916015625 0.926513671875 L 4.80029296875 0.727294921875 Q 4.75927734375 0.725830078125 4.691162109375 0.725830078125 Q 4.623046875 0.725830078125 4.5439453125 0.725830078125 Q 4.486083984375 0.725830078125 4.4322509765625 0.725830078125 Q 4.37841796875 0.725830078125 4.335205078125 0.727294921875 L 4.2509765625 0.920654296875 Q 4.239990234375 0.94775390625 4.2275390625 0.97998046875 Q 4.215087890625 1.01220703125 4.215087890625 1.045166015625 Q 4.215087890625 1.0546875 4.216552734375 1.0609130859375 Q 4.218017578125 1.067138671875 4.219482421875 1.0693359375 L 4.219482421875 1.072265625 L 4.070068359375 1.072265625 L 4.070068359375 1.0693359375 Q 4.083251953125 1.055419921875 4.10302734375 1.0198974609375 Q 4.122802734375 0.984375 4.146240234375 0.930908203125 L 4.56591796875 0 L 4.62451171875 0 L 5.022216796875 0.89501953125 Q 5.0361328125 0.926513671875 5.0511474609375 0.9561767578125 Q 5.066162109375 0.98583984375 5.079345703125 1.00927734375 Q 5.092529296875 1.03271484375 5.102783203125 1.048828125 Q 5.113037109375 1.06494140625 5.11669921875 1.0693359375 L 5.11669921875 1.072265625 L 4.916015625 1.072265625 M 4.44140625 0.662841796875 Q 4.48388671875 0.662841796875 4.528564453125 0.6624755859375 Q 4.5732421875 0.662109375 4.6160888671875 0.6617431640625 Q 4.658935546875 0.661376953125 4.698486328125 0.6610107421875 Q 4.738037109375 0.66064453125 4.770263671875 0.659912109375 L 4.564453125 0.19482421875 L 4.3623046875 0.662841796875 L 4.44140625 0.662841796875 M 5.64404296875 0.18896484375 L 5.6279296875 0.18896484375 Q 5.6220703125 0.172119140625 5.6092529296875 0.15087890625 Q 5.596435546875 0.129638671875 5.5755615234375 0.1109619140625 Q 5.5546875 0.09228515625 5.5250244140625 0.079833984375 Q 5.495361328125 0.0673828125 5.455078125 0.0673828125 Q 5.419189453125 0.0673828125 5.391357421875 0.078369140625 Q 5.363525390625 0.08935546875 5.3448486328125 0.109130859375 Q 5.326171875 0.12890625 5.316650390625 0.156005859375 Q 5.30712890625 0.18310546875 5.30712890625 0.216064453125 Q 5.30712890625 0.268798828125 5.3367919921875 0.3167724609375 Q 5.366455078125 0.36474609375 5.4111328125 0.41162109375 Q 5.455810546875 0.45849609375 5.5078125 0.50537109375 Q 5.559814453125 0.55224609375 5.6044921875 0.602783203125 Q 5.649169921875 0.6533203125 5.6788330078125 0.7086181640625 Q 5.70849609375 0.763916015625 5.70849609375 0.82763671875 Q 5.70849609375 0.875244140625 5.6920166015625 0.9232177734375 Q 5.675537109375 0.97119140625 5.64111328125 1.00927734375 Q 5.606689453125 1.04736328125 5.552490234375 1.0711669921875 Q 5.498291015625 1.094970703125 5.423583984375 1.094970703125 Q 5.3818359375 1.094970703125 5.3441162109375 1.0872802734375 Q 5.306396484375 1.07958984375 5.2745361328125 1.0682373046875 Q 5.24267578125 1.056884765625 5.2174072265625 1.043701171875 Q 5.192138671875 1.030517578125 5.176025390625 1.01953125 L 5.19287109375 0.857666015625 L 5.211181640625 0.857666015625 Q 5.21923828125 0.89208984375 5.237548828125 0.9232177734375 Q 5.255859375 0.954345703125 5.2825927734375 0.9781494140625 Q 5.309326171875 1.001953125 5.34375 1.0162353515625 Q 5.378173828125 1.030517578125 5.419189453125 1.030517578125 Q 5.45654296875 1.030517578125 5.4862060546875 1.0191650390625 Q 5.515869140625 1.0078125 5.537109375 0.9876708984375 Q 5.558349609375 0.967529296875 5.5697021484375 0.939697265625 Q 5.5810546875 0.911865234375 5.5810546875 0.87890625 Q 5.5810546875 0.832763671875 5.564208984375 0.7935791015625 Q 5.54736328125 0.75439453125 5.5198974609375 0.71923828125 Q 5.492431640625 0.68408203125 5.4576416015625 0.651123046875 Q 5.4228515625 0.6181640625 5.38623046875 0.5848388671875 Q 5.349609375 0.551513671875 5.3148193359375 0.516357421875 Q 5.280029296875 0.481201171875 5.2525634765625 0.4412841796875 Q 5.22509765625 0.4013671875 5.208251953125 0.3555908203125 Q 5.19140625 0.309814453125 5.19140625 0.2548828125 Q 5.19140625 0.197021484375 5.2137451171875 0.1505126953125 Q 5.236083984375 0.10400390625 5.2730712890625 0.071044921875 Q 5.31005859375 0.0380859375 5.35693359375 0.0205078125 Q 5.40380859375 0.0029296875 5.45361328125 0.0029296875 Q 5.490234375 0.0029296875 5.52099609375 0.0087890625 Q 5.5517578125 0.0146484375 5.5762939453125 0.022705078125 Q 5.600830078125 0.03076171875 5.619140625 0.038818359375 Q 5.637451171875 0.046875 5.649169921875 0.052001953125 L 5.64404296875 0.18896484375" fill="#173054" fill-rule="nonzero"></path></g><g><path d=" M 0.075 1.4408559570312496 L 0.075 1.8783559570312496 L 0.3575 1.8783559570312496 L 0.3575 1.8439809570312495 L 0.131875 1.8439809570312495 L 0.131875 1.6608559570312496 L 0.325625 1.6608559570312496 L 0.325625 1.6321059570312495 L 0.131875 1.6321059570312495 L 0.131875 1.4752309570312496 L 0.3575 1.4752309570312496 L 0.3575 1.4408559570312496 L 0.075 1.4408559570312496 M 0.5831185913085938 1.8533559570312497 Q 0.5606185913085937 1.8533559570312497 0.5396810913085938 1.8464809570312495 Q 0.5187435913085938 1.8396059570312495 0.5024935913085937 1.8242934570312497 Q 0.48624359130859374 1.8089809570312496 0.4765560913085938 1.7836684570312495 Q 0.46686859130859376 1.7583559570312497 0.46686859130859376 1.7214809570312495 Q 0.46686859130859376 1.6833559570312495 0.47749359130859376 1.6567934570312497 Q 0.48811859130859375 1.6302309570312497 0.5040560913085937 1.6142934570312497 Q 0.5199935913085938 1.5983559570312496 0.5393685913085937 1.5911684570312497 Q 0.5587435913085937 1.5839809570312495 0.5762435913085937 1.5839809570312495 Q 0.6049935913085938 1.5839809570312495 0.6262435913085938 1.5989809570312497 Q 0.6474935913085937 1.6139809570312496 0.6543685913085937 1.6358559570312496 L 0.6974935913085938 1.6358559570312496 Q 0.6912435913085937 1.6133559570312497 0.6774935913085938 1.5986684570312495 Q 0.6637435913085938 1.5839809570312495 0.6459310913085938 1.5749184570312496 Q 0.6281185913085938 1.5658559570312496 0.6078060913085938 1.5624184570312496 Q 0.5874935913085937 1.5589809570312496 0.5687435913085938 1.5589809570312496 Q 0.5293685913085937 1.5589809570312496 0.49936859130859373 1.5717934570312495 Q 0.46936859130859376 1.5846059570312496 0.44874359130859376 1.6064809570312495 Q 0.42811859130859375 1.6283559570312496 0.41780609130859375 1.6577309570312495 Q 0.40749359130859375 1.6871059570312497 0.40749359130859375 1.7202309570312495 Q 0.40749359130859375 1.7552309570312497 0.41874359130859373 1.7855434570312496 Q 0.42999359130859377 1.8158559570312496 0.45093109130859377 1.8380434570312496 Q 0.47186859130859377 1.8602309570312496 0.5012435913085938 1.8730434570312495 Q 0.5306185913085938 1.8858559570312496 0.5674935913085938 1.8858559570312496 Q 0.6087435913085938 1.8858559570312496 0.6396810913085937 1.8721059570312495 Q 0.6706185913085938 1.8583559570312496 0.6918685913085938 1.8421059570312497 L 0.6737435913085937 1.8183559570312495 Q 0.6518685913085938 1.8364809570312495 0.6303060913085938 1.8449184570312496 Q 0.6087435913085938 1.8533559570312497 0.5831185913085938 1.8533559570312497 M 1.07124755859375 1.7227309570312497 Q 1.07124755859375 1.7552309570312497 1.05999755859375 1.7849184570312495 Q 1.04874755859375 1.8146059570312496 1.02781005859375 1.8371059570312496 Q 1.00687255859375 1.8596059570312495 0.97718505859375 1.8727309570312496 Q 0.94749755859375 1.8858559570312496 0.91062255859375 1.8858559570312496 Q 0.87312255859375 1.8858559570312496 0.84281005859375 1.8724184570312497 Q 0.81249755859375 1.8589809570312497 0.79156005859375 1.8364809570312495 Q 0.77062255859375 1.8139809570312495 0.75906005859375 1.7842934570312496 Q 0.74749755859375 1.7546059570312496 0.74749755859375 1.7227309570312497 Q 0.74749755859375 1.6902309570312495 0.75906005859375 1.6605434570312496 Q 0.77062255859375 1.6308559570312495 0.79156005859375 1.6083559570312496 Q 0.81249755859375 1.5858559570312496 0.84281005859375 1.5724184570312496 Q 0.87312255859375 1.5589809570312496 0.91062255859375 1.5589809570312496 Q 0.94749755859375 1.5589809570312496 0.97718505859375 1.5724184570312496 Q 1.00687255859375 1.5858559570312496 1.02781005859375 1.6083559570312496 Q 1.04874755859375 1.6308559570312495 1.05999755859375 1.6605434570312496 Q 1.07124755859375 1.6902309570312495 1.07124755859375 1.7227309570312497 M 1.01187255859375 1.7227309570312497 Q 1.01187255859375 1.6789809570312495 1.00249755859375 1.6517934570312496 Q 0.99312255859375 1.6246059570312497 0.9781225585937501 1.6096059570312495 Q 0.96312255859375 1.5946059570312496 0.94499755859375 1.5892934570312496 Q 0.9268725585937501 1.5839809570312495 0.90999755859375 1.5839809570312495 Q 0.89312255859375 1.5839809570312495 0.87499755859375 1.5892934570312496 Q 0.85687255859375 1.5946059570312496 0.8415600585937499 1.6096059570312495 Q 0.82624755859375 1.6246059570312497 0.81656005859375 1.6517934570312496 Q 0.80687255859375 1.6789809570312495 0.80687255859375 1.7227309570312497 Q 0.80687255859375 1.7658559570312495 0.81656005859375 1.7930434570312497 Q 0.82624755859375 1.8202309570312496 0.8415600585937499 1.8352309570312495 Q 0.85687255859375 1.8502309570312496 0.87499755859375 1.8555434570312497 Q 0.89312255859375 1.8608559570312495 0.90999755859375 1.8608559570312495 Q 0.9268725585937501 1.8608559570312495 0.94499755859375 1.8555434570312497 Q 0.96312255859375 1.8502309570312496 0.9781225585937501 1.8352309570312495 Q 0.99312255859375 1.8202309570312496 1.00249755859375 1.7930434570312497 Q 1.01187255859375 1.7658559570312495 1.01187255859375 1.7227309570312497 M 1.2943606567382813 1.6877309570312495 L 1.2943606567382813 1.7346059570312495 L 1.1399856567382813 1.7346059570312495 L 1.1399856567382813 1.6877309570312495 L 1.2943606567382813 1.6877309570312495 M 1.4068634033203125 1.4408559570312496 L 1.4068634033203125 1.8783559570312496 L 1.4637384033203125 1.8783559570312496 L 1.4637384033203125 1.6608559570312496 L 1.6574884033203126 1.6608559570312496 L 1.6574884033203126 1.6321059570312495 L 1.4637384033203125 1.6321059570312495 L 1.4637384033203125 1.4752309570312496 L 1.6893634033203124 1.4752309570312496 L 1.6893634033203124 1.4408559570312496 L 1.4068634033203125 1.4408559570312496 M 1.7581069946289063 1.5658559570312496 L 1.7581069946289063 1.8783559570312496 L 1.8112319946289062 1.8783559570312496 L 1.8112319946289062 1.6896059570312496 Q 1.8112319946289062 1.6639809570312496 1.8171694946289063 1.6461684570312496 Q 1.8231069946289062 1.6283559570312496 1.8324819946289062 1.6171059570312496 Q 1.8418569946289063 1.6058559570312496 1.8531069946289063 1.6008559570312495 Q 1.8643569946289062 1.5958559570312496 1.8749819946289064 1.5958559570312496 Q 1.8893569946289062 1.5958559570312496 1.9015444946289062 1.6052309570312495 Q 1.9137319946289062 1.6146059570312497 1.9193569946289062 1.6227309570312496 L 1.9406069946289062 1.5839809570312495 Q 1.9349819946289062 1.5764809570312495 1.9271694946289062 1.5714809570312496 Q 1.9193569946289062 1.5664809570312497 1.9115444946289062 1.5636684570312496 Q 1.9037319946289062 1.5608559570312495 1.8971694946289062 1.5599184570312497 Q 1.8906069946289064 1.5589809570312496 1.8874819946289063 1.5589809570312496 Q 1.8612319946289062 1.5589809570312496 1.8437319946289064 1.5733559570312496 Q 1.8262319946289063 1.5877309570312494 1.8149819946289063 1.6158559570312496 L 1.8112319946289062 1.6158559570312496 L 1.8112319946289062 1.5658559570312496 L 1.7581069946289063 1.5658559570312496 M 2.016868896484375 1.5658559570312496 L 2.016868896484375 1.8783559570312496 L 2.069993896484375 1.8783559570312496 L 2.069993896484375 1.5658559570312496 L 2.016868896484375 1.5658559570312496 M 2.009368896484375 1.4671059570312495 Q 2.009368896484375 1.4808559570312496 2.019368896484375 1.4908559570312496 Q 2.029368896484375 1.5008559570312496 2.043118896484375 1.5008559570312496 Q 2.056868896484375 1.5008559570312496 2.066868896484375 1.4908559570312496 Q 2.076868896484375 1.4808559570312496 2.076868896484375 1.4671059570312495 Q 2.076868896484375 1.4533559570312495 2.066868896484375 1.4433559570312495 Q 2.056868896484375 1.4333559570312495 2.043118896484375 1.4333559570312495 Q 2.029368896484375 1.4333559570312495 2.019368896484375 1.4433559570312495 Q 2.009368896484375 1.4533559570312495 2.009368896484375 1.4671059570312495 M 2.4668585205078126 1.7358559570312495 L 2.4668585205078126 1.7227309570312497 Q 2.4668585205078126 1.6808559570312496 2.4549835205078123 1.6502309570312497 Q 2.4431085205078125 1.6196059570312495 2.4227960205078123 1.5996059570312495 Q 2.4024835205078126 1.5796059570312495 2.3756085205078126 1.5696059570312495 Q 2.3487335205078126 1.5596059570312495 2.3187335205078123 1.5596059570312495 Q 2.2868585205078125 1.5596059570312495 2.2599835205078125 1.5705434570312495 Q 2.2331085205078125 1.5814809570312496 2.2131085205078125 1.6024184570312496 Q 2.1931085205078125 1.6233559570312495 2.1818585205078125 1.6530434570312496 Q 2.1706085205078125 1.6827309570312496 2.1706085205078125 1.7202309570312495 Q 2.1706085205078125 1.7514809570312495 2.1802960205078126 1.7811684570312496 Q 2.1899835205078126 1.8108559570312495 2.2096710205078125 1.8342934570312497 Q 2.2293585205078124 1.8577309570312497 2.2596710205078123 1.8717934570312496 Q 2.2899835205078123 1.8858559570312496 2.3312335205078125 1.8858559570312496 Q 2.3712335205078126 1.8858559570312496 2.4049835205078125 1.8717934570312496 Q 2.4387335205078124 1.8577309570312497 2.4637335205078124 1.8314809570312496 L 2.4437335205078123 1.8114809570312496 Q 2.4306085205078123 1.8227309570312495 2.4190460205078126 1.8321059570312497 Q 2.4074835205078124 1.8414809570312496 2.3956085205078126 1.8477309570312497 Q 2.3837335205078123 1.8539809570312495 2.3709210205078124 1.8574184570312495 Q 2.3581085205078125 1.8608559570312495 2.3424835205078125 1.8608559570312495 Q 2.3249835205078124 1.8608559570312495 2.3052960205078126 1.8555434570312497 Q 2.2856085205078127 1.8502309570312496 2.2687335205078125 1.8364809570312495 Q 2.2518585205078123 1.8227309570312495 2.2406085205078123 1.7983559570312495 Q 2.2293585205078124 1.7739809570312497 2.2293585205078124 1.7358559570312495 L 2.4668585205078126 1.7358559570312495 M 2.2293585205078124 1.7108559570312496 Q 2.2293585205078124 1.6858559570312495 2.2346710205078124 1.6624184570312495 Q 2.2399835205078125 1.6389809570312495 2.2509210205078123 1.6208559570312495 Q 2.2618585205078126 1.6027309570312496 2.2787335205078123 1.5917934570312495 Q 2.2956085205078125 1.5808559570312495 2.3187335205078123 1.5808559570312495 Q 2.3631085205078124 1.5808559570312495 2.3877960205078126 1.6155434570312495 Q 2.4124835205078123 1.6502309570312497 2.4124835205078123 1.7108559570312496 L 2.2293585205078124 1.7108559570312496 M 2.8093426513671877 1.8783559570312496 L 2.8093426513671877 1.6758559570312497 Q 2.8093426513671877 1.6646059570312497 2.8074676513671877 1.6449184570312496 Q 2.8055926513671876 1.6252309570312495 2.7952801513671877 1.6061684570312496 Q 2.7849676513671877 1.5871059570312496 2.7624676513671877 1.5730434570312495 Q 2.7399676513671873 1.5589809570312496 2.6987176513671876 1.5589809570312496 Q 2.6805926513671876 1.5583559570312495 2.6580926513671876 1.5661684570312495 Q 2.6355926513671877 1.5739809570312495 2.6137176513671876 1.5958559570312496 L 2.6037176513671874 1.6058559570312496 L 2.6012176513671874 1.6058559570312496 L 2.6012176513671874 1.5658559570312496 L 2.5480926513671873 1.5658559570312496 L 2.5480926513671873 1.8783559570312496 L 2.6012176513671874 1.8783559570312496 L 2.6012176513671874 1.6852309570312496 Q 2.6012176513671874 1.6608559570312496 2.6080926513671874 1.6433559570312495 Q 2.6149676513671873 1.6258559570312496 2.6268426513671876 1.6139809570312496 Q 2.6387176513671875 1.6021059570312497 2.6540301513671873 1.5964809570312495 Q 2.6693426513671876 1.5908559570312495 2.6855926513671875 1.5908559570312495 Q 2.7118426513671876 1.5908559570312495 2.7262176513671874 1.6011684570312497 Q 2.7405926513671877 1.6114809570312496 2.7471551513671875 1.6252309570312495 Q 2.7537176513671877 1.6389809570312495 2.7549676513671875 1.6527309570312496 Q 2.7562176513671877 1.6664809570312495 2.7562176513671877 1.6727309570312496 L 2.7562176513671877 1.8783559570312496 L 2.8093426513671877 1.8783559570312496 M 3.1887136840820314 1.4408559570312496 L 3.1355886840820313 1.4408559570312496 L 3.1355886840820313 1.6171059570312496 L 3.1330886840820313 1.6171059570312496 Q 3.1268386840820312 1.6008559570312495 3.1165261840820313 1.5899184570312497 Q 3.1062136840820314 1.5789809570312496 3.0930886840820313 1.5721059570312494 Q 3.0799636840820312 1.5652309570312495 3.0652761840820313 1.5621059570312497 Q 3.0505886840820313 1.5589809570312496 3.035588684082031 1.5589809570312496 Q 3.004338684082031 1.5589809570312496 2.978088684082031 1.5705434570312495 Q 2.9518386840820314 1.5821059570312497 2.9327761840820314 1.6033559570312494 Q 2.9137136840820315 1.6246059570312497 2.9030886840820314 1.6546059570312495 Q 2.8924636840820312 1.6846059570312495 2.8924636840820312 1.7214809570312495 Q 2.8924636840820312 1.7589809570312496 2.9030886840820314 1.7892934570312495 Q 2.9137136840820315 1.8196059570312495 2.9327761840820314 1.8411684570312497 Q 2.9518386840820314 1.8627309570312496 2.978088684082031 1.8742934570312495 Q 3.004338684082031 1.8858559570312496 3.035588684082031 1.8858559570312496 Q 3.109338684082031 1.8858559570312496 3.1330886840820313 1.8277309570312497 L 3.1355886840820313 1.8277309570312497 L 3.1355886840820313 1.8783559570312496 L 3.1887136840820314 1.8783559570312496 L 3.1887136840820314 1.4408559570312496 M 3.1355886840820313 1.7533559570312496 Q 3.1355886840820313 1.7739809570312497 3.1287136840820313 1.7924184570312496 Q 3.1218386840820314 1.8108559570312495 3.110276184082031 1.8242934570312497 Q 3.098713684082031 1.8377309570312497 3.0827761840820314 1.8455434570312497 Q 3.066838684082031 1.8533559570312497 3.0487136840820312 1.8533559570312497 Q 3.0287136840820312 1.8533559570312497 3.011213684082031 1.8461684570312495 Q 2.993713684082031 1.8389809570312496 2.980588684082031 1.8233559570312496 Q 2.9674636840820314 1.8077309570312496 2.9596511840820314 1.7827309570312495 Q 2.9518386840820314 1.7577309570312496 2.9518386840820314 1.7227309570312497 Q 2.9518386840820314 1.6871059570312497 2.9596511840820314 1.6621059570312495 Q 2.9674636840820314 1.6371059570312496 2.980901184082031 1.6211684570312497 Q 2.9943386840820314 1.6052309570312495 3.011838684082031 1.5980434570312496 Q 3.029338684082031 1.5908559570312495 3.0487136840820312 1.5908559570312495 Q 3.0662136840820313 1.5908559570312495 3.0818386840820313 1.5980434570312496 Q 3.0974636840820313 1.6052309570312495 3.109338684082031 1.6192934570312496 Q 3.121213684082031 1.6333559570312497 3.128401184082031 1.6533559570312495 Q 3.1355886840820313 1.6733559570312495 3.1355886840820313 1.6989809570312495 L 3.1355886840820313 1.7533559570312496 M 3.3543411254882813 1.4408559570312496 L 3.3012161254882812 1.4408559570312496 L 3.3012161254882812 1.8783559570312496 L 3.3543411254882813 1.8783559570312496 L 3.3543411254882813 1.4408559570312496 M 3.5880743408203126 1.8052309570312497 L 3.4799493408203124 1.5658559570312496 L 3.4230743408203126 1.5658559570312496 L 3.5630743408203127 1.8746059570312497 L 3.5299493408203126 1.9558559570312495 Q 3.5243243408203124 1.9702309570312495 3.5152618408203127 1.9789809570312495 Q 3.5061993408203125 1.9877309570312496 3.4943243408203126 1.9877309570312496 Q 3.4830743408203126 1.9877309570312496 3.4727618408203127 1.9811684570312496 Q 3.4624493408203123 1.9746059570312495 3.4568243408203125 1.9621059570312496 L 3.4293243408203127 2.0139809570312495 Q 3.4411993408203125 2.0246059570312496 3.4555743408203123 2.0296059570312495 Q 3.4699493408203126 2.03460595703125 3.4824493408203123 2.03460595703125 Q 3.4999493408203124 2.03460595703125 3.5130743408203124 2.0258559570312498 Q 3.5261993408203125 2.0171059570312497 3.5361993408203123 2.0030434570312496 Q 3.5461993408203125 1.9889809570312496 3.5536993408203124 1.9717934570312496 Q 3.5611993408203126 1.9546059570312495 3.5680743408203126 1.9377309570312495 L 3.7193243408203127 1.5658559570312496 L 3.6886993408203126 1.5658559570312496 L 3.5905743408203126 1.8052309570312497 L 3.5880743408203126 1.8052309570312497 M 4.423701782226562 1.6833559570312495 L 4.299951782226563 1.6833559570312495 L 4.299951782226563 1.7089809570312495 L 4.369951782226562 1.7089809570312495 L 4.369951782226562 1.8221059570312497 Q 4.341826782226563 1.8402309570312496 4.312451782226563 1.8489809570312497 Q 4.283076782226562 1.8577309570312497 4.245576782226562 1.8577309570312497 Q 4.196201782226563 1.8577309570312497 4.159326782226563 1.8427309570312496 Q 4.1224517822265625 1.8277309570312497 4.0980767822265625 1.8011684570312496 Q 4.073701782226562 1.7746059570312496 4.061514282226563 1.7380434570312495 Q 4.049326782226562 1.7014809570312495 4.049326782226562 1.6577309570312495 Q 4.049326782226562 1.6146059570312497 4.0608892822265625 1.5783559570312495 Q 4.072451782226563 1.5421059570312496 4.095576782226562 1.5158559570312495 Q 4.118701782226562 1.4896059570312497 4.152139282226562 1.4752309570312496 Q 4.185576782226563 1.4608559570312496 4.229951782226562 1.4608559570312496 Q 4.259326782226562 1.4608559570312496 4.284951782226562 1.4671059570312495 Q 4.310576782226563 1.4733559570312496 4.330576782226562 1.4833559570312496 Q 4.350576782226563 1.4933559570312496 4.363389282226563 1.5061684570312495 Q 4.376201782226563 1.5189809570312496 4.379951782226563 1.5321059570312496 L 4.424951782226563 1.5321059570312496 Q 4.4193267822265625 1.5183559570312495 4.405889282226562 1.5011684570312496 Q 4.392451782226562 1.4839809570312497 4.369326782226563 1.4689809570312495 Q 4.346201782226562 1.4539809570312496 4.312139282226562 1.4436684570312495 Q 4.278076782226562 1.4333559570312495 4.2318267822265625 1.4333559570312495 Q 4.178701782226563 1.4333559570312495 4.134014282226563 1.4483559570312496 Q 4.089326782226562 1.4633559570312495 4.056826782226563 1.4914809570312495 Q 4.024326782226563 1.5196059570312497 4.0062017822265625 1.5605434570312495 Q 3.9880767822265626 1.6014809570312496 3.9880767822265626 1.6533559570312495 Q 3.9880767822265626 1.6977309570312495 4.002139282226563 1.7392934570312495 Q 4.016201782226562 1.7808559570312497 4.0452642822265625 1.8136684570312496 Q 4.074326782226563 1.8464809570312495 4.119326782226563 1.8661684570312496 Q 4.164326782226563 1.8858559570312496 4.226826782226563 1.8858559570312496 Q 4.273701782226563 1.8858559570312496 4.3099517822265625 1.8755434570312495 Q 4.346201782226562 1.8652309570312495 4.369951782226562 1.8527309570312496 L 4.369951782226562 1.8783559570312496 L 4.423701782226562 1.8783559570312496 L 4.423701782226562 1.6833559570312495 M 4.626212158203125 1.5589809570312496 Q 4.671837158203125 1.5589809570312496 4.696837158203125 1.5717934570312495 Q 4.721837158203125 1.5846059570312496 4.733399658203125 1.6052309570312495 Q 4.744962158203125 1.6258559570312496 4.746837158203125 1.6527309570312496 Q 4.748712158203125 1.6796059570312496 4.748712158203125 1.7077309570312496 L 4.748712158203125 1.8783559570312496 L 4.698087158203125 1.8783559570312496 L 4.698087158203125 1.8477309570312497 Q 4.679962158203125 1.8652309570312495 4.651837158203125 1.8755434570312495 Q 4.623712158203125 1.8858559570312496 4.595587158203125 1.8858559570312496 Q 4.568712158203125 1.8858559570312496 4.548087158203125 1.8764809570312495 Q 4.527462158203125 1.8671059570312496 4.513712158203125 1.8521059570312495 Q 4.499962158203125 1.8371059570312496 4.493087158203125 1.8183559570312495 Q 4.486212158203125 1.7996059570312495 4.486212158203125 1.7802309570312496 Q 4.486212158203125 1.7602309570312495 4.493712158203125 1.7402309570312495 Q 4.501212158203125 1.7202309570312495 4.516212158203125 1.7042934570312496 Q 4.531212158203125 1.6883559570312496 4.553087158203125 1.6783559570312496 Q 4.574962158203125 1.6683559570312496 4.603087158203125 1.6683559570312496 Q 4.631212158203125 1.6683559570312496 4.656524658203125 1.6792934570312497 Q 4.681837158203125 1.6902309570312495 4.698087158203125 1.7102309570312495 L 4.698087158203125 1.6833559570312495 Q 4.698087158203125 1.6321059570312495 4.682774658203125 1.6071059570312496 Q 4.667462158203125 1.5821059570312497 4.626837158203125 1.5821059570312497 Q 4.609337158203125 1.5821059570312497 4.596212158203125 1.5864809570312497 Q 4.583087158203125 1.5908559570312495 4.572774658203125 1.5986684570312495 Q 4.562462158203125 1.6064809570312495 4.553712158203125 1.6180434570312496 Q 4.544962158203125 1.6296059570312496 4.536212158203125 1.6439809570312496 L 4.503712158203125 1.6114809570312496 Q 4.512462158203125 1.6021059570312497 4.522149658203125 1.5927309570312496 Q 4.531837158203125 1.5833559570312497 4.545899658203125 1.5758559570312496 Q 4.559962158203125 1.5683559570312495 4.579337158203125 1.5636684570312496 Q 4.598712158203125 1.5589809570312496 4.626212158203125 1.5589809570312496 M 4.698087158203125 1.7546059570312496 Q 4.694962158203125 1.7471059570312495 4.689024658203125 1.7371059570312495 Q 4.683087158203125 1.7271059570312497 4.673712158203125 1.7177309570312496 Q 4.664337158203125 1.7083559570312497 4.651212158203125 1.7017934570312496 Q 4.638087158203125 1.6952309570312496 4.619962158203125 1.6952309570312496 Q 4.601837158203125 1.6952309570312496 4.586837158203125 1.7024184570312495 Q 4.571837158203125 1.7096059570312496 4.561524658203125 1.7211684570312495 Q 4.551212158203125 1.7327309570312495 4.545587158203125 1.7483559570312495 Q 4.539962158203125 1.7639809570312495 4.539962158203125 1.7808559570312497 Q 4.539962158203125 1.8008559570312497 4.547149658203125 1.8155434570312496 Q 4.554337158203125 1.8302309570312496 4.565587158203125 1.8405434570312496 Q 4.576837158203125 1.8508559570312495 4.590587158203125 1.8558559570312496 Q 4.604337158203125 1.8608559570312495 4.616837158203125 1.8608559570312495 Q 4.628712158203125 1.8608559570312495 4.640899658203125 1.8564809570312495 Q 4.653087158203125 1.8521059570312495 4.664024658203125 1.8442934570312495 Q 4.674962158203125 1.8364809570312495 4.683712158203125 1.8258559570312496 Q 4.692462158203125 1.8152309570312495 4.698087158203125 1.8027309570312495 L 4.698087158203125 1.7546059570312496 M 5.048073425292968 1.6371059570312496 Q 5.048073425292968 1.6202309570312496 5.039323425292968 1.6058559570312496 Q 5.030573425292968 1.5914809570312496 5.015260925292969 1.5811684570312496 Q 4.999948425292969 1.5708559570312497 4.9796359252929685 1.5649184570312495 Q 4.959323425292968 1.5589809570312496 4.936198425292969 1.5589809570312496 Q 4.914323425292968 1.5589809570312496 4.895260925292969 1.5646059570312496 Q 4.876198425292968 1.5702309570312496 4.862135925292969 1.5814809570312496 Q 4.848073425292969 1.5927309570312496 4.8399484252929685 1.6092934570312496 Q 4.831823425292969 1.6258559570312496 4.831823425292969 1.6477309570312495 Q 4.831823425292969 1.6777309570312495 4.845573425292969 1.6952309570312496 Q 4.859323425292969 1.7127309570312497 4.879948425292969 1.7233559570312496 Q 4.9005734252929685 1.7339809570312497 4.924635925292969 1.7405434570312495 Q 4.948698425292969 1.7471059570312495 4.969323425292969 1.7549184570312495 Q 4.989948425292969 1.7627309570312495 5.003698425292969 1.7746059570312496 Q 5.017448425292969 1.7864809570312497 5.017448425292969 1.8071059570312495 Q 5.017448425292969 1.8158559570312496 5.014635925292969 1.8252309570312495 Q 5.0118234252929685 1.8346059570312496 5.004323425292969 1.8424184570312496 Q 4.996823425292969 1.8502309570312496 4.983698425292968 1.8555434570312497 Q 4.970573425292969 1.8608559570312495 4.950573425292969 1.8608559570312495 Q 4.925573425292969 1.8608559570312495 4.9083859252929685 1.8530434570312495 Q 4.891198425292969 1.8452309570312495 4.880260925292969 1.8342934570312497 Q 4.8693234252929685 1.8233559570312496 4.864635925292969 1.8121059570312497 Q 4.859948425292969 1.8008559570312497 4.859948425292969 1.7933559570312496 L 4.819323425292969 1.7933559570312496 Q 4.819323425292969 1.8108559570312495 4.827448425292968 1.8274184570312495 Q 4.835573425292969 1.8439809570312495 4.852135925292969 1.8571059570312496 Q 4.868698425292969 1.8702309570312496 4.8927609252929685 1.8780434570312496 Q 4.916823425292969 1.8858559570312496 4.948698425292969 1.8858559570312496 Q 5.006198425292968 1.8858559570312496 5.0352609252929685 1.8605434570312496 Q 5.064323425292969 1.8352309570312495 5.064323425292969 1.7939809570312495 Q 5.064323425292969 1.7639809570312495 5.050260925292969 1.7458559570312495 Q 5.036198425292969 1.7277309570312496 5.014948425292968 1.7167934570312495 Q 4.993698425292969 1.7058559570312495 4.969010925292968 1.6989809570312495 Q 4.944323425292969 1.6921059570312496 4.923073425292968 1.6846059570312495 Q 4.901823425292969 1.6771059570312497 4.887760925292969 1.6664809570312495 Q 4.873698425292969 1.6558559570312497 4.873698425292969 1.6364809570312495 Q 4.873698425292969 1.6283559570312496 4.876823425292969 1.6192934570312496 Q 4.879948425292969 1.6102309570312496 4.887448425292969 1.6024184570312496 Q 4.894948425292969 1.5946059570312496 4.907448425292968 1.5892934570312496 Q 4.919948425292969 1.5839809570312495 4.938698425292968 1.5839809570312495 Q 4.957448425292969 1.5839809570312495 4.971198425292969 1.5892934570312496 Q 4.984948425292969 1.5946059570312496 4.9943234252929685 1.6024184570312496 Q 5.003698425292969 1.6102309570312496 5.008073425292968 1.6196059570312495 Q 5.012448425292969 1.6289809570312497 5.012448425292969 1.6371059570312496 L 5.048073425292968 1.6371059570312496" fill="#173054" fill-rule="nonzero"></path></g></g><defs><clipPath id="SvgjsClipPath26573"><path d=" M -4.0485874816368845 -1.0308583692318627 h 3.6485874816368846 v 3.940072695494975 h -3.6485874816368846 Z"></path></clipPath><clipPath id="SvgjsClipPath2656888be98cf-54bd-46a7-b899-f04077c49209"><path d=" M -4.0485874816368845 -1.0308583692318627 L -0.3999999999999999 -1.0308583692318627 L -0.3999999999999999 2.9092143262631125 L -4.048587481636884 2.9092143262631125 Z"></path></clipPath></defs></svg>